<svg width="80" height="80" viewBox="0 0 80 80" fill="none" xmlns="http://www.w3.org/2000/svg">
<rect width="80" height="80" rx="40" fill="#FDC886" fill-opacity="0.2"/>
<path d="M33.1466 34.8985C33.4498 34.0343 35.0958 34.0343 35.3991 34.8985C36.1239 36.9637 37.2056 39.3558 38.6645 40.8148C40.1234 42.2737 42.5156 43.3554 44.5808 44.0802C45.4449 44.3835 45.4449 46.0294 44.5808 46.3327C42.5156 47.0575 40.1234 48.1392 38.6645 49.5981C37.2056 51.057 36.1239 53.4492 35.3991 55.5144C35.0958 56.3785 33.4498 56.3785 33.1466 55.5144C32.4218 53.4492 31.3401 51.057 29.8812 49.5981C28.4222 48.1392 26.0301 47.0575 23.9649 46.3327C23.1007 46.0294 23.1007 44.3835 23.9649 44.0802C26.0301 43.3554 28.4222 42.2737 29.8812 40.8148C31.3401 39.3558 32.4218 36.9637 33.1466 34.8985Z" fill="#FDC886"/>
<path d="M51.3287 43.8549C51.4725 43.4201 52.2774 43.4201 52.4212 43.8549C52.8412 45.125 53.5079 46.7022 54.4367 47.6311C55.3656 48.5599 56.9429 49.2266 58.2129 49.6466C58.6477 49.7904 58.6477 50.5954 58.2129 50.7391C56.9429 51.1591 55.3656 51.8258 54.4367 52.7547C53.5079 53.6835 52.8412 55.2608 52.4212 56.5308C52.2774 56.9656 51.4725 56.9656 51.3287 56.5308C50.9087 55.2608 50.242 53.6835 49.3131 52.7547C48.3843 51.8258 46.807 51.1591 45.537 50.7391C45.1022 50.5954 45.1022 49.7904 45.537 49.6466C46.807 49.2266 48.3843 48.5599 49.3131 47.6311C50.242 46.7022 50.9087 45.1249 51.3287 43.8549Z" fill="#FDC886"/>
<path d="M27.7795 21.9879C27.9233 21.5531 28.7283 21.5531 28.8721 21.9879C29.2921 23.2579 29.9588 24.8352 30.8876 25.7641C31.8164 26.6929 33.3937 27.3596 34.6638 27.7796C35.0985 27.9234 35.0985 28.7283 34.6638 28.8721C33.3937 29.2921 31.8164 29.9588 30.8876 30.8877C29.9588 31.8165 29.2921 33.3938 28.8721 34.6638C28.7283 35.0986 27.9233 35.0986 27.7795 34.6638C27.3595 33.3938 26.6928 31.8165 25.764 30.8877C24.8352 29.9588 23.2579 29.2921 21.9879 28.8721C21.5531 28.7283 21.5531 27.9234 21.9879 27.7796C23.2579 27.3596 24.8352 26.6929 25.764 25.7641C26.6928 24.8352 27.3595 23.2579 27.7795 21.9879Z" fill="#FDC886"/>
<path d="M46.3167 23.9391C46.661 23.0904 48.3902 23.0904 48.7344 23.9391C49.2548 25.2219 49.9472 26.5388 50.8193 27.4109C51.6915 28.2831 53.0083 28.9755 54.2912 29.4959C55.1399 29.8401 55.1399 31.5693 54.2912 31.9135C53.0083 32.4339 51.6915 33.1263 50.8193 33.9984C49.9472 34.8706 49.2548 36.1874 48.7344 37.4703C48.3902 38.319 46.661 38.319 46.3167 37.4703C45.7964 36.1874 45.104 34.8706 44.2318 33.9984C43.3597 33.1263 42.0428 32.4339 40.76 31.9135C39.9113 31.5693 39.9113 29.8401 40.76 29.4959C42.0428 28.9755 43.3597 28.2831 44.2318 27.4109C45.104 26.5388 45.7964 25.2219 46.3167 23.9391Z" fill="#FDC886"/>
</svg>
