<svg width="80" height="80" viewBox="0 0 80 80" fill="none" xmlns="http://www.w3.org/2000/svg">
<rect width="80" height="80" rx="40" fill="#FDC886" fill-opacity="0.2"/>
<path d="M31.355 20.8222C31.355 19.8158 32.1709 19 33.1772 19H40.4661C41.4725 19 42.2884 19.8158 42.2884 20.8222V21.7333C42.2884 24.2493 40.2488 26.2889 37.7328 26.2889H35.9106C33.3946 26.2889 31.355 24.2493 31.355 21.7333V20.8222Z" fill="#FDC886"/>
<path d="M30.2994 30.448C30.9539 29.5356 32.0115 29.0222 33.1344 29.0222H40.509C41.6319 29.0222 42.6895 29.5356 43.344 30.448C45.5301 33.4955 50.43 40.8497 51.3995 46.7889C51.7804 49.1224 52.1832 50.9719 51.661 52.8605C50.7371 56.2017 46.7376 57.2667 43.271 57.2667H30.3723C26.9058 57.2667 22.9062 56.2017 21.9824 52.8605C21.4602 50.9719 21.863 49.1224 22.2439 46.7889C23.2134 40.8497 28.1133 33.4955 30.2994 30.448Z" fill="#FDC886"/>
<path d="M37.4413 51.104C37.1255 51.104 36.8643 50.9946 36.6578 50.776C36.4513 50.5695 36.348 50.3143 36.348 50.0106V48.9355C35.6434 48.8869 35.0178 48.7776 34.4711 48.6075C33.9366 48.4253 33.481 48.237 33.1044 48.0426C32.7643 47.8726 32.5517 47.6357 32.4667 47.332C32.3816 47.0161 32.3938 46.7185 32.5031 46.4391C32.6246 46.1475 32.819 45.941 33.0862 45.8195C33.3656 45.6859 33.6936 45.7102 34.0702 45.8924C34.3618 46.0503 34.7687 46.2143 35.2911 46.3844C35.8135 46.5423 36.4513 46.6213 37.2044 46.6213C38.0427 46.6213 38.6379 46.4877 38.9902 46.2204C39.3425 45.9532 39.5187 45.6191 39.5187 45.2182C39.5187 44.8902 39.3972 44.6169 39.1542 44.3982C38.9113 44.1795 38.4739 44.0034 37.8422 43.8698L35.8378 43.4324C33.6268 42.9465 32.5213 41.7681 32.5213 39.8973C32.5213 38.8769 32.8676 38.0143 33.56 37.3098C34.2524 36.6052 35.1818 36.1618 36.348 35.9795V34.8315C36.348 34.5278 36.4513 34.2727 36.6578 34.0662C36.8643 33.8475 37.1255 33.7382 37.4413 33.7382C37.745 33.7382 38.0002 33.8475 38.2067 34.0662C38.4132 34.2727 38.5164 34.5278 38.5164 34.8315V35.9249C38.9659 35.9856 39.4276 36.0949 39.9013 36.2529C40.3873 36.4108 40.8124 36.6173 41.1769 36.8724C41.4684 37.0546 41.6446 37.2915 41.7053 37.5831C41.7782 37.8625 41.7539 38.1298 41.6324 38.3849C41.511 38.64 41.3105 38.8222 41.0311 38.9315C40.7639 39.0287 40.4359 38.9801 40.0471 38.7858C39.7191 38.6278 39.3607 38.4942 38.972 38.3849C38.5833 38.2755 38.1034 38.2209 37.5324 38.2209C36.8279 38.2209 36.2751 38.3666 35.8742 38.6582C35.4733 38.9498 35.2729 39.3263 35.2729 39.788C35.2729 40.116 35.3883 40.3893 35.6191 40.608C35.8621 40.8145 36.2812 40.9846 36.8764 41.1182L38.8991 41.5555C40.0532 41.8106 40.9036 42.2298 41.4502 42.8129C42.009 43.3838 42.2884 44.1188 42.2884 45.0178C42.2884 46.0503 41.9362 46.9007 41.2316 47.5689C40.5391 48.237 39.6341 48.6683 38.5164 48.8626V50.0106C38.5164 50.3143 38.4132 50.5695 38.2067 50.776C38.0002 50.9946 37.745 51.104 37.4413 51.104Z" fill="#FFF4E7"/>
<circle cx="49.9778" cy="52.7111" r="6.37778" fill="#FDC886" stroke="#FFF4E7" stroke-width="1.82222"/>
<rect x="48.533" y="49.9778" width="5.46667" height="1.82222" rx="0.911111" transform="rotate(45 48.533 49.9778)" fill="#FFF4E7"/>
<rect x="47.2445" y="53.8433" width="5.46667" height="1.82222" rx="0.911111" transform="rotate(-45 47.2445 53.8433)" fill="#FFF4E7"/>
</svg>
